<svg xmlns="http://www.w3.org/2000/svg" viewBox="0 0 640 360" width="640" height="360" role="img" aria-labelledby="title"><title id="title">Данные для карьерного разбора. Вымышленные данные рождения.</title><rect width="640" height="360" rx="20" fill="#111124"/><circle cx="190" cy="180" r="102" fill="none" stroke="#68508b" stroke-width="1"/><circle cx="190" cy="180" r="135" fill="none" stroke="#68508b" stroke-width="1"/><circle cx="190" cy="180" r="155" fill="none" stroke="#68508b" stroke-width="1"/><path d="M296.19 292.91L259.88 254.30" stroke="#68508b"/><text x="313.29" y="260.31" fill="#d3c1ee" font-family="Arial,sans-serif" font-size="18" text-anchor="middle">♈</text><path d="M338.42 224.68L287.67 209.40" stroke="#68508b"/><text x="334.93" y="188.44" fill="#d3c1ee" font-family="Arial,sans-serif" font-size="18" text-anchor="middle">♉</text><path d="M340.88 144.49L289.29 156.63" stroke="#68508b"/><text x="317.74" y="115.38" fill="#d3c1ee" font-family="Arial,sans-serif" font-size="18" text-anchor="middle">♊</text><path d="M302.91 73.81L264.30 110.12" stroke="#68508b"/><text x="266.31" y="60.71" fill="#d3c1ee" font-family="Arial,sans-serif" font-size="18" text-anchor="middle">♋</text><path d="M234.68 31.58L219.40 82.33" stroke="#68508b"/><text x="194.44" y="39.07" fill="#d3c1ee" font-family="Arial,sans-serif" font-size="18" text-anchor="middle">♌</text><path d="M154.49 29.12L166.63 80.71" stroke="#68508b"/><text x="121.38" y="56.26" fill="#d3c1ee" font-family="Arial,sans-serif" font-size="18" text-anchor="middle">♍</text><path d="M83.81 67.09L120.12 105.70" stroke="#68508b"/><text x="66.71" y="107.69" fill="#d3c1ee" font-family="Arial,sans-serif" font-size="18" text-anchor="middle">♎</text><path d="M41.58 135.32L92.33 150.60" stroke="#68508b"/><text x="45.07" y="179.56" fill="#d3c1ee" font-family="Arial,sans-serif" font-size="18" text-anchor="middle">♏</text><path d="M39.12 215.51L90.71 203.37" stroke="#68508b"/><text x="62.26" y="252.62" fill="#d3c1ee" font-family="Arial,sans-serif" font-size="18" text-anchor="middle">♐</text><path d="M77.09 286.19L115.70 249.88" stroke="#68508b"/><text x="113.69" y="307.29" fill="#d3c1ee" font-family="Arial,sans-serif" font-size="18" text-anchor="middle">♑</text><path d="M145.32 328.42L160.60 277.67" stroke="#68508b"/><text x="185.56" y="328.93" fill="#d3c1ee" font-family="Arial,sans-serif" font-size="18" text-anchor="middle">♒</text><path d="M225.51 330.88L213.37 279.29" stroke="#68508b"/><text x="258.62" y="311.74" fill="#d3c1ee" font-family="Arial,sans-serif" font-size="18" text-anchor="middle">♓</text><path d="M190 180L88.00 180.00" stroke="#403350"/><path d="M190 180L101.44 230.61" stroke="#403350"/><path d="M190 180L156.20 276.24" stroke="#403350"/><path d="M190 180L228.78 274.34" stroke="#403350"/><path d="M190 180L271.30 241.60" stroke="#403350"/><path d="M190 180L288.13 207.84" stroke="#403350"/><path d="M190 180L292.00 180.00" stroke="#403350"/><path d="M190 180L278.56 129.39" stroke="#403350"/><path d="M190 180L223.80 83.76" stroke="#403350"/><path d="M190 180L151.22 85.66" stroke="#403350"/><path d="M190 180L108.70 118.40" stroke="#403350"/><path d="M190 180L91.87 152.16" stroke="#403350"/><path d="M178.45 92.76L176.87 80.87" stroke="#f6c637" stroke-opacity=".35"/><text x="178.45" y="97.76" fill="#f6c637" font-family="Arial,sans-serif" font-size="18" text-anchor="middle">☉</text><path d="M140.29 237.49L124.59 255.64" stroke="#f6c637" stroke-opacity=".35"/><text x="140.29" y="242.49" fill="#f6c637" font-family="Arial,sans-serif" font-size="18" text-anchor="middle">☽</text><path d="M176.59 117.42L169.05 82.22" stroke="#f6c637" stroke-opacity=".35"/><text x="176.59" y="122.42" fill="#f6c637" font-family="Arial,sans-serif" font-size="18" text-anchor="middle">☿</text><path d="M119.37 127.51L109.73 120.36" stroke="#f6c637" stroke-opacity=".35"/><text x="119.37" y="132.51" fill="#f6c637" font-family="Arial,sans-serif" font-size="18" text-anchor="middle">♀</text><path d="M244.98 127.53L262.34 110.96" stroke="#f6c637" stroke-opacity=".35"/><text x="244.98" y="132.53" fill="#f6c637" font-family="Arial,sans-serif" font-size="18" text-anchor="middle">♂</text><path d="M126.78 170.03L91.22 164.42" stroke="#f6c637" stroke-opacity=".35"/><text x="126.78" y="175.03" fill="#f6c637" font-family="Arial,sans-serif" font-size="18" text-anchor="middle">♃</text><path d="M224.94 260.77L229.71 271.78" stroke="#f6c637" stroke-opacity=".35"/><text x="224.94" y="265.77" fill="#f6c637" font-family="Arial,sans-serif" font-size="18" text-anchor="middle">♄</text><path d="M159.61 249.66L150.02 271.66" stroke="#f6c637" stroke-opacity=".35"/><text x="159.61" y="254.66" fill="#f6c637" font-family="Arial,sans-serif" font-size="18" text-anchor="middle">♅</text><path d="M162.30 237.70L146.72 270.15" stroke="#f6c637" stroke-opacity=".35"/><text x="162.3" y="242.7" fill="#f6c637" font-family="Arial,sans-serif" font-size="18" text-anchor="middle">♆</text><path d="M102.98 193.10L91.11 194.89" stroke="#f6c637" stroke-opacity=".35"/><text x="102.98" y="198.1" fill="#f6c637" font-family="Arial,sans-serif" font-size="18" text-anchor="middle">♇</text><text x="380" y="56" fill="#f6c637" font-family="Arial,sans-serif" font-size="15" text-anchor="start">ОПОРА ДЛЯ РАЗБОРА</text><text x="380" y="105" fill="#b9aec8" font-family="Arial,sans-serif" font-size="14" text-anchor="start">Середина неба · MC</text><text x="380" y="129" fill="#f0edf8" font-family="Arial,sans-serif" font-size="18" text-anchor="start">Дева · 9°06′</text><text x="380" y="181" fill="#b9aec8" font-family="Arial,sans-serif" font-size="14" text-anchor="start">Меркурий</text><text x="380" y="205" fill="#f0edf8" font-family="Arial,sans-serif" font-size="18" text-anchor="start">Лев · 28°51′</text><text x="380" y="257" fill="#b9aec8" font-family="Arial,sans-serif" font-size="14" text-anchor="start">Сатурн</text><text x="380" y="281" fill="#f0edf8" font-family="Arial,sans-serif" font-size="18" text-anchor="start">Рыбы · 10°09′</text></svg>
